<svg width="32" height="31" viewBox="0 0 32 31" fill="none" xmlns="http://www.w3.org/2000/svg">
<ellipse cx="16" cy="16.3484" rx="15" ry="14.6512" fill="white"/>
<path d="M16 1C7.7125 1 1 7.72669 1 16.023C1 22.6617 5.2975 28.2915 11.2563 30.2764C12.0063 30.4178 12.2812 29.9528 12.2812 29.5541C12.2812 29.1973 12.2688 28.252 12.2625 26.9997C8.09 27.9055 7.21 24.9842 7.21 24.9842C6.5275 23.2503 5.54125 22.7866 5.54125 22.7866C4.1825 21.8553 5.64625 21.8744 5.64625 21.8744C7.1525 21.9789 7.94375 23.4223 7.94375 23.4223C9.28125 25.7193 11.455 25.0556 12.3125 24.6721C12.4475 23.7 12.8338 23.0388 13.2625 22.663C9.93125 22.2872 6.43 20.9954 6.43 15.2394C6.43 13.5998 7.01125 12.2596 7.97375 11.2085C7.805 10.8289 7.29875 9.30135 8.105 7.23238C8.105 7.23238 9.36125 6.8298 12.23 8.77264C13.43 8.43886 14.705 8.27324 15.98 8.26559C17.255 8.27324 18.53 8.43886 19.73 8.77264C22.58 6.8298 23.8362 7.23238 23.8362 7.23238C24.6425 9.30135 24.1362 10.8289 23.9862 11.2085C24.9425 12.2596 25.5238 13.5998 25.5238 15.2394C25.5238 21.0106 22.0175 22.2808 18.68 22.6503C19.205 23.1013 19.6925 24.0224 19.6925 25.4301C19.6925 27.4405 19.6737 29.0559 19.6737 29.5439C19.6737 29.9375 19.9363 30.4076 20.705 30.2573C26.7062 28.2852 31 22.6515 31 16.023C31 7.72669 24.2838 1 16 1Z" fill="#5819C0" stroke="white" stroke-width="0.5"/>
</svg>
