<svg width="401" height="58" viewBox="0 0 401 58" fill="none" xmlns="http://www.w3.org/2000/svg">
<path d="M392.433 47.5354C383.269 59.0944 365.297 56.2344 361.131 41.8155C360.893 41.1005 360.774 40.2663 360.655 39.5514C370.296 37.4064 379.698 30.3757 380.531 21.915C381.245 14.2884 373.509 12.0243 368.392 16.3142C362.322 21.4383 358.037 28.9457 357.68 36.9295C351.491 37.7637 345.421 36.0954 342.089 30.018C336.495 19.77 343.993 5.94669 353.99 1.89509C355.062 1.53759 354.586 -0.130713 353.514 0.226781C339.708 4.15941 332.567 23.4641 341.97 34.9037C345.659 39.313 351.61 40.7428 357.799 40.0278C358.632 48.131 364.94 54.5659 372.438 57.0684C381.126 59.9283 389.1 55.7578 394.218 48.9652C395.051 47.8927 393.266 46.5821 392.433 47.5354ZM365.773 23.4641C367.677 20.8425 370.177 17.8634 373.39 16.7909C376.485 15.7184 377.556 20.0083 377.675 21.915C377.794 24.2983 376.127 26.4432 374.58 28.1115C371.367 31.8055 366.011 35.0231 360.536 36.4529C360.893 31.8055 363.155 27.2774 365.773 23.4641Z" fill="#A7E1D7"/>
<path d="M399.097 43.1265C395.765 43.1265 392.314 43.3648 389.1 44.1989C387.791 44.5564 388.386 46.3439 389.695 46.1056C392.314 45.6289 395.051 45.7481 397.669 45.8673C397.55 47.4162 397.431 49.0845 397.193 50.6337C396.955 51.8253 396.122 53.6128 396.836 54.8044C397.193 55.4004 397.788 55.4004 398.384 55.1619C399.812 54.5661 399.812 52.0636 400.05 50.7528C400.407 48.6077 400.526 46.582 400.526 44.4369C400.526 43.7223 399.812 43.1265 399.097 43.1265Z" fill="#A7E1D7"/>
<path d="M351.205 47.5354C342.04 59.0944 324.069 56.2344 319.903 41.8155C319.665 41.1005 319.546 40.2663 319.427 39.5514C329.067 37.4064 338.47 30.3757 339.303 21.915C340.017 14.2884 332.281 12.0243 327.163 16.3142C321.093 21.4383 316.809 28.9457 316.451 36.9295C310.263 37.7637 304.193 36.0954 300.86 30.018C295.266 19.77 302.764 5.94669 312.762 1.89509C313.833 1.53759 313.357 -0.130713 312.286 0.226781C298.48 4.15941 291.339 23.4641 300.741 34.9037C304.431 39.313 310.382 40.7428 316.57 40.0278C317.404 48.131 323.712 54.5659 331.209 57.0684C339.898 59.9283 347.872 55.7578 352.99 48.9652C353.823 47.8927 352.037 46.5821 351.205 47.5354ZM324.545 23.4641C326.449 20.8425 328.948 17.8634 332.162 16.7909C335.256 15.7184 336.327 20.0083 336.446 21.915C336.565 24.2983 334.899 26.4432 333.352 28.1115C330.138 31.8055 324.783 35.0231 319.308 36.4529C319.665 31.8055 321.926 27.2774 324.545 23.4641Z" fill="#A7E1D7"/>
<path d="M357.869 43.1265C354.537 43.1265 351.085 43.3648 347.872 44.1989C346.563 44.5564 347.158 46.3439 348.467 46.1056C351.086 45.6289 353.823 45.7481 356.441 45.8673C356.322 47.4162 356.203 49.0845 355.965 50.6337C355.727 51.8253 354.894 53.6128 355.608 54.8044C355.965 55.4004 356.56 55.4004 357.156 55.1619C358.584 54.5661 358.584 52.0636 358.822 50.7528C359.179 48.6077 359.298 46.582 359.298 44.4369C359.298 43.7223 358.584 43.1265 357.869 43.1265Z" fill="#A7E1D7"/>
<path d="M308.906 47.3762C299.741 58.9352 281.77 56.0753 277.604 41.6563C277.366 40.9413 277.247 40.1072 277.128 39.3922C286.768 37.2472 296.171 30.2165 297.004 21.7558C297.718 14.1292 289.982 11.8651 284.864 16.155C278.794 21.2791 274.51 28.7865 274.153 36.7704C267.964 37.6045 261.894 35.9362 258.561 29.8588C252.968 19.6108 260.466 5.78751 270.463 1.73591C271.534 1.37841 271.058 -0.289893 269.987 0.0676015C256.181 4.00023 249.04 23.3049 258.442 34.7446C262.132 39.1539 268.083 40.5836 274.272 39.8686C275.105 47.9719 281.413 54.4067 288.911 56.9092C297.599 59.7692 305.573 55.5986 310.691 48.806C311.524 47.7335 309.739 46.4229 308.906 47.3762ZM282.246 23.3049C284.15 20.6833 286.649 17.7042 289.863 16.6317C292.957 15.5592 294.029 19.8492 294.147 21.7558C294.266 24.1391 292.6 26.2841 291.053 27.9524C287.84 31.6463 282.484 34.8639 277.009 36.2937C277.366 31.6463 279.627 27.1182 282.246 23.3049Z" fill="#A7E1D7"/>
<path d="M315.571 42.967C312.239 42.967 308.787 43.2054 305.574 44.0395C304.265 44.397 304.86 46.1845 306.169 45.9462C308.787 45.4695 311.525 45.5887 314.143 45.7078C314.024 47.2568 313.905 48.9251 313.667 50.4742C313.429 51.6659 312.596 53.4534 313.31 54.645C313.667 55.241 314.262 55.241 314.857 55.0025C316.285 54.4067 316.285 51.9042 316.523 50.5934C316.881 48.4482 316.999 46.4226 316.999 44.2775C316.999 43.5629 316.285 42.967 315.571 42.967Z" fill="#A7E1D7"/>
<path d="M266.122 47.5531C256.958 59.1121 238.987 56.2521 234.821 41.8332C234.583 41.1182 234.464 40.284 234.345 39.5691C243.985 37.4241 253.388 30.3934 254.221 21.9327C254.935 14.3061 247.199 12.042 242.081 16.3319C236.011 21.456 231.726 28.9634 231.369 36.9472C225.181 37.7814 219.111 36.1131 215.778 30.0357C210.184 19.7877 217.682 5.96439 227.68 1.91279C228.751 1.55529 228.275 -0.113013 227.204 0.244481C213.398 4.17711 206.257 23.4818 215.659 34.9214C219.349 39.3307 225.3 40.7605 231.488 40.0455C232.322 48.1487 238.629 54.5836 246.127 57.0861C254.816 59.946 262.79 55.7755 267.908 48.9829C268.741 47.9104 266.955 46.5998 266.122 47.5531ZM239.463 23.4818C241.367 20.8602 243.866 17.8811 247.08 16.8086C250.174 15.7361 251.245 20.026 251.364 21.9327C251.483 24.316 249.817 26.4609 248.27 28.1292C245.056 31.8232 239.701 35.0408 234.226 36.4706C234.583 31.8232 236.844 27.2951 239.463 23.4818Z" fill="#A7E1D7"/>
<path d="M272.787 43.1443C269.454 43.1443 266.003 43.3826 262.789 44.2168C261.481 44.5743 262.075 46.3617 263.385 46.1234C266.003 45.6467 268.741 45.7659 271.359 45.8851C271.24 47.434 271.121 49.1023 270.883 50.6515C270.645 51.8431 269.812 53.6306 270.526 54.8222C270.883 55.4183 271.478 55.4183 272.073 55.1797C273.501 54.5839 273.501 52.0815 273.739 50.7706C274.096 48.6255 274.215 46.5999 274.215 44.4547C274.215 43.7401 273.501 43.1443 272.787 43.1443Z" fill="#A7E1D7"/>
<path d="M223.727 47.5531C214.563 59.1121 196.592 56.2521 192.426 41.8332C192.188 41.1182 192.069 40.284 191.95 39.5691C201.59 37.4241 210.993 30.3934 211.826 21.9327C212.54 14.3061 204.804 12.042 199.686 16.3319C193.616 21.456 189.331 28.9634 188.974 36.9472C182.786 37.7814 176.716 36.1131 173.383 30.0357C167.789 19.7877 175.287 5.96439 185.285 1.91279C186.356 1.55529 185.88 -0.113013 184.809 0.244481C171.003 4.17711 163.862 23.4818 173.264 34.9214C176.954 39.3307 182.905 40.7605 189.093 40.0455C189.927 48.1487 196.234 54.5836 203.732 57.0861C212.421 59.946 220.395 55.7755 225.513 48.9829C226.346 47.9104 224.56 46.5998 223.727 47.5531ZM197.068 23.4818C198.972 20.8602 201.471 17.8811 204.685 16.8086C207.779 15.7361 208.85 20.026 208.969 21.9327C209.088 24.316 207.422 26.4609 205.875 28.1292C202.661 31.8232 197.306 35.0408 191.831 36.4706C192.188 31.8232 194.449 27.2951 197.068 23.4818Z" fill="#A7E1D7"/>
<path d="M230.391 43.1443C227.059 43.1443 223.607 43.3826 220.394 44.2168C219.085 44.5743 219.68 46.3617 220.989 46.1234C223.608 45.6467 226.345 45.7659 228.963 45.8851C228.844 47.434 228.725 49.1023 228.487 50.6515C228.249 51.8431 227.416 53.6306 228.13 54.8222C228.487 55.4183 229.082 55.4183 229.678 55.1797C231.106 54.5839 231.106 52.0815 231.344 50.7706C231.701 48.6255 231.82 46.5999 231.82 44.4547C231.82 43.7401 231.106 43.1443 230.391 43.1443Z" fill="#A7E1D7"/>
<path d="M182.499 47.5531C173.335 59.1121 155.363 56.2521 151.197 41.8332C150.959 41.1182 150.84 40.284 150.721 39.5691C160.362 37.4241 169.764 30.3934 170.597 21.9327C171.311 14.3061 163.575 12.042 158.457 16.3319C152.388 21.456 148.103 28.9634 147.746 36.9472C141.557 37.7814 135.487 36.1131 132.155 30.0357C126.561 19.7877 134.059 5.96439 144.056 1.91279C145.128 1.55529 144.651 -0.113013 143.58 0.244481C129.774 4.17711 122.633 23.4818 132.036 34.9214C135.725 39.3307 141.676 40.7605 147.865 40.0455C148.698 48.1487 155.006 54.5836 162.504 57.0861C171.192 59.946 179.166 55.7755 184.284 48.9829C185.117 47.9104 183.332 46.5998 182.499 47.5531ZM155.839 23.4818C157.743 20.8602 160.243 17.8811 163.456 16.8086C166.55 15.7361 167.622 20.026 167.741 21.9327C167.86 24.316 166.193 26.4609 164.646 28.1292C161.433 31.8232 156.077 35.0408 150.602 36.4706C150.959 31.8232 153.221 27.2951 155.839 23.4818Z" fill="#A7E1D7"/>
<path d="M189.164 43.1443C185.831 43.1443 182.38 43.3826 179.166 44.2168C177.857 44.5743 178.452 46.3617 179.762 46.1234C182.38 45.6467 185.118 45.7659 187.736 45.8851C187.617 47.434 187.498 49.1023 187.26 50.6515C187.022 51.8431 186.189 53.6306 186.903 54.8222C187.26 55.4183 187.855 55.4183 188.45 55.1797C189.878 54.5839 189.878 52.0815 190.116 50.7706C190.473 48.6255 190.592 46.5999 190.592 44.4547C190.592 43.7401 189.878 43.1443 189.164 43.1443Z" fill="#A7E1D7"/>
<path d="M139.715 47.3585C130.551 58.9175 112.579 56.0576 108.414 41.6386C108.176 40.9236 108.057 40.0895 107.938 39.3745C117.578 37.2295 126.98 30.1988 127.814 21.7381C128.528 14.1115 120.792 11.8474 115.674 16.1373C109.604 21.2614 105.319 28.7688 104.962 36.7527C98.7733 37.5868 92.7034 35.9185 89.371 29.8411C83.7772 19.5931 91.2752 5.76981 101.273 1.71821C102.344 1.36071 101.868 -0.307593 100.797 0.0499013C86.9906 3.98253 79.8496 23.2872 89.2519 34.7269C92.9415 39.1362 98.8923 40.5659 105.081 39.8509C105.914 47.9542 112.222 54.389 119.72 56.8915C128.408 59.7515 136.383 55.5809 141.5 48.7883C142.334 47.7158 140.548 46.4052 139.715 47.3585ZM113.055 23.2872C114.96 20.6656 117.459 17.6865 120.672 16.614C123.767 15.5415 124.838 19.8315 124.957 21.7381C125.076 24.1214 123.41 26.2664 121.862 27.9347C118.649 31.6286 113.293 34.8462 107.819 36.276C108.176 31.6286 110.437 27.1005 113.055 23.2872Z" fill="#A7E1D7"/>
<path d="M146.38 42.9495C143.047 42.9495 139.596 43.1878 136.382 44.0219C135.073 44.3794 135.668 46.1669 136.978 45.9286C139.596 45.4519 142.333 45.5711 144.952 45.6903C144.833 47.2392 144.714 48.9075 144.476 50.4566C144.238 51.6483 143.404 53.4358 144.119 54.6274C144.476 55.2234 145.071 55.2234 145.666 54.9849C147.094 54.3891 147.094 51.8866 147.332 50.5758C147.689 48.4307 147.808 46.405 147.808 44.2599C147.808 43.5453 147.094 42.9495 146.38 42.9495Z" fill="#A7E1D7"/>
<path d="M97.517 47.5531C88.3527 59.1121 70.3811 56.2521 66.2155 41.8332C65.9774 41.1182 65.8584 40.284 65.7394 39.5691C75.3798 37.4241 84.7822 30.3934 85.6153 21.9327C86.3294 14.3061 78.5933 12.042 73.4755 16.3319C67.4056 21.456 63.121 28.9634 62.764 36.9472C56.5751 37.7814 50.5052 36.1131 47.1727 30.0357C41.5789 19.7877 49.077 5.96439 59.0744 1.91279C60.1456 1.55529 59.6695 -0.113013 58.5984 0.244481C44.7924 4.17711 37.6513 23.4818 47.0537 34.9214C50.7432 39.3307 56.6941 40.7605 62.883 40.0455C63.7161 48.1487 70.024 54.5836 77.5219 57.0861C86.2102 59.946 94.1843 55.7755 99.3021 48.9829C100.135 47.9104 98.3499 46.5998 97.517 47.5531ZM70.8572 23.4818C72.7614 20.8602 75.2608 17.8811 78.4743 16.8086C81.5685 15.7361 82.6399 20.026 82.7587 21.9327C82.8777 24.316 81.2115 26.4609 79.6642 28.1292C76.451 31.8232 71.0952 35.0408 65.6204 36.4706C65.9774 31.8232 68.2388 27.2951 70.8572 23.4818Z" fill="#A7E1D7"/>
<path d="M104.181 43.1443C100.849 43.1443 97.3975 43.3826 94.184 44.2168C92.875 44.5743 93.4699 46.3617 94.7793 46.1234C97.3977 45.6467 100.135 45.7659 102.753 45.8851C102.634 47.434 102.515 49.1023 102.277 50.6515C102.039 51.8431 101.206 53.6306 101.92 54.8222C102.277 55.4183 102.872 55.4183 103.468 55.1797C104.896 54.5839 104.896 52.0815 105.134 50.7706C105.491 48.6255 105.61 46.5999 105.61 44.4547C105.61 43.7401 104.896 43.1443 104.181 43.1443Z" fill="#A7E1D7"/>
<path d="M54.7328 47.3585C45.5685 58.9175 27.5969 56.0576 23.4313 41.6386C23.1933 40.9236 23.0742 40.0895 22.9552 39.3745C32.5956 37.2295 41.998 30.1988 42.8311 21.7381C43.5452 14.1115 35.8091 11.8474 30.6913 16.1373C24.6215 21.2614 20.3368 28.7688 19.9798 36.7527C13.7909 37.5868 7.72102 35.9185 4.38854 29.8411C-1.20527 19.5931 6.29282 5.76981 16.2903 1.71821C17.3614 1.36071 16.8854 -0.307593 15.8142 0.0499013C2.0082 3.98253 -5.13284 23.2872 4.26952 34.7269C7.95906 39.1362 13.9099 40.5659 20.0988 39.8509C20.9319 47.9542 27.2398 54.389 34.7377 56.8915C43.426 59.7515 51.4002 55.5809 56.5179 48.7883C57.3512 47.7158 55.5658 46.4052 54.7328 47.3585ZM28.073 23.2872C29.9772 20.6656 32.4766 17.6865 35.6901 16.614C38.7843 15.5415 39.8557 19.8315 39.9745 21.7381C40.0935 24.1214 38.4273 26.2664 36.8801 27.9347C33.6668 31.6286 28.311 34.8462 22.8362 36.276C23.1933 31.6286 25.4546 27.1005 28.073 23.2872Z" fill="#A7E1D7"/>
<path d="M61.3973 42.9495C58.0648 42.9495 54.6133 43.1878 51.3999 44.0219C50.0909 44.3794 50.6857 46.1669 51.9951 45.9286C54.6135 45.4519 57.3509 45.5711 59.9693 45.6903C59.8503 47.2392 59.7313 48.9075 59.4932 50.4566C59.2552 51.6483 58.4221 53.4358 59.1362 54.6274C59.4932 55.2234 60.0883 55.2234 60.6834 54.9849C62.1116 54.3891 62.1116 51.8866 62.3496 50.5758C62.7067 48.4307 62.8255 46.405 62.8255 44.2599C62.8255 43.5453 62.1114 42.9495 61.3973 42.9495Z" fill="#A7E1D7"/>
</svg>
