<svg width="908" height="58" viewBox="0 0 908 58" fill="none" xmlns="http://www.w3.org/2000/svg">
<path d="M899.521 47.5531C890.357 59.1121 872.385 56.2521 868.219 41.8332C867.981 41.1182 867.862 40.284 867.743 39.5691C877.384 37.4241 886.786 30.3934 887.619 21.9327C888.333 14.3061 880.597 12.042 875.479 16.3319C869.41 21.456 865.125 28.9634 864.768 36.9472C858.579 37.7814 852.509 36.1131 849.177 30.0357C843.583 19.7877 851.081 5.96439 861.078 1.91279C862.15 1.55529 861.673 -0.113013 860.602 0.244481C846.796 4.17711 839.655 23.4818 849.058 34.9214C852.747 39.3307 858.698 40.7605 864.887 40.0455C865.72 48.1487 872.028 54.5836 879.526 57.0861C888.214 59.946 896.188 55.7755 901.306 48.9829C902.139 47.9104 900.354 46.5998 899.521 47.5531ZM872.861 23.4818C874.765 20.8602 877.265 17.8811 880.478 16.8086C883.572 15.7361 884.644 20.026 884.763 21.9327C884.882 24.316 883.215 26.4609 881.668 28.1292C878.455 31.8232 873.099 35.0408 867.624 36.4706C867.981 31.8232 870.243 27.2951 872.861 23.4818Z" fill="#A7E1D7"/>
<path d="M906.186 43.1443C902.854 43.1443 899.402 43.3826 896.189 44.2168C894.88 44.5743 895.474 46.3617 896.784 46.1234C899.402 45.6467 902.14 45.7659 904.758 45.8851C904.639 47.434 904.52 49.1023 904.282 50.6515C904.044 51.8431 903.211 53.6306 903.925 54.8222C904.282 55.4183 904.877 55.4183 905.472 55.1797C906.9 54.5839 906.9 52.0815 907.138 50.7706C907.495 48.6255 907.614 46.5999 907.614 44.4547C907.614 43.7401 906.9 43.1443 906.186 43.1443Z" fill="#A7E1D7"/>
<path d="M858.293 47.5531C849.128 59.1121 831.157 56.2521 826.991 41.8332C826.753 41.1182 826.634 40.284 826.515 39.5691C836.155 37.4241 845.558 30.3934 846.391 21.9327C847.105 14.3061 839.369 12.042 834.251 16.3319C828.181 21.456 823.897 28.9634 823.54 36.9472C817.351 37.7814 811.281 36.1131 807.948 30.0357C802.355 19.7877 809.853 5.96439 819.85 1.91279C820.921 1.55529 820.445 -0.113013 819.374 0.244481C805.568 4.17711 798.427 23.4818 807.829 34.9214C811.519 39.3307 817.47 40.7605 823.659 40.0455C824.492 48.1487 830.8 54.5836 838.298 57.0861C846.986 59.946 854.96 55.7755 860.078 48.9829C860.911 47.9104 859.126 46.5998 858.293 47.5531ZM831.633 23.4818C833.537 20.8602 836.036 17.8811 839.25 16.8086C842.344 15.7361 843.415 20.026 843.534 21.9327C843.653 24.316 841.987 26.4609 840.44 28.1292C837.227 31.8232 831.871 35.0408 826.396 36.4706C826.753 31.8232 829.014 27.2951 831.633 23.4818Z" fill="#A7E1D7"/>
<path d="M864.958 43.1443C861.625 43.1443 858.174 43.3826 854.96 44.2168C853.651 44.5743 854.246 46.3617 855.555 46.1234C858.174 45.6467 860.911 45.7659 863.53 45.8851C863.411 47.434 863.292 49.1023 863.054 50.6515C862.815 51.8431 861.982 53.6306 862.696 54.8222C863.054 55.4183 863.649 55.4183 864.244 55.1797C865.672 54.5839 865.672 52.0815 865.91 50.7706C866.267 48.6255 866.386 46.5999 866.386 44.4547C866.386 43.7401 865.672 43.1443 864.958 43.1443Z" fill="#A7E1D7"/>
<path d="M815.509 47.3585C806.345 58.9175 788.373 56.0576 784.208 41.6386C783.97 40.9236 783.851 40.0895 783.732 39.3745C793.372 37.2295 802.774 30.1988 803.607 21.7381C804.322 14.1115 796.585 11.8474 791.468 16.1373C785.398 21.2614 781.113 28.7688 780.756 36.7527C774.567 37.5868 768.497 35.9185 765.165 29.8411C759.571 19.5931 767.069 5.76981 777.067 1.71821C778.138 1.36071 777.662 -0.307593 776.591 0.0499013C762.785 3.98253 755.644 23.2872 765.046 34.7269C768.735 39.1362 774.686 40.5659 780.875 39.8509C781.708 47.9542 788.016 54.389 795.514 56.8915C804.202 59.7515 812.177 55.5809 817.294 48.7883C818.128 47.7158 816.342 46.4052 815.509 47.3585ZM788.849 23.2872C790.754 20.6656 793.253 17.6865 796.466 16.614C799.561 15.5415 800.632 19.8315 800.751 21.7381C800.87 24.1214 799.204 26.2664 797.656 27.9347C794.443 31.6286 789.087 34.8462 783.613 36.276C783.97 31.6286 786.231 27.1005 788.849 23.2872Z" fill="#A7E1D7"/>
<path d="M822.173 42.9495C818.841 42.9495 815.389 43.1878 812.176 44.0219C810.867 44.3794 811.462 46.1669 812.771 45.9286C815.39 45.4519 818.127 45.5711 820.745 45.6903C820.626 47.2392 820.507 48.9075 820.269 50.4566C820.031 51.6483 819.198 53.4358 819.912 54.6274C820.269 55.2234 820.864 55.2234 821.459 54.9849C822.888 54.3891 822.888 51.8866 823.126 50.5758C823.483 48.4307 823.602 46.405 823.602 44.2599C823.602 43.5453 822.887 42.9495 822.173 42.9495Z" fill="#A7E1D7"/>
<path d="M772.725 47.5354C763.56 59.0944 745.589 56.2344 741.423 41.8155C741.185 41.1005 741.066 40.2663 740.947 39.5514C750.587 37.4064 759.99 30.3757 760.823 21.915C761.537 14.2884 753.801 12.0243 748.683 16.3142C742.613 21.4383 738.329 28.9457 737.971 36.9295C731.783 37.7637 725.713 36.0954 722.38 30.018C716.786 19.77 724.285 5.94669 734.282 1.89509C735.353 1.53759 734.877 -0.130713 733.806 0.226781C720 4.15941 712.859 23.4641 722.261 34.9037C725.951 39.313 731.902 40.7428 738.091 40.0278C738.924 48.131 745.232 54.5659 752.729 57.0684C761.418 59.9283 769.392 55.7578 774.51 48.9652C775.343 47.8927 773.557 46.5821 772.725 47.5354ZM746.065 23.4641C747.969 20.8425 750.468 17.8634 753.682 16.7909C756.776 15.7184 757.847 20.0083 757.966 21.915C758.085 24.2983 756.419 26.4432 754.872 28.1115C751.658 31.8055 746.303 35.0231 740.828 36.4529C741.185 31.8055 743.446 27.2774 746.065 23.4641Z" fill="#A7E1D7"/>
<path d="M779.39 43.1265C776.057 43.1265 772.606 43.3648 769.392 44.1989C768.083 44.5564 768.678 46.3439 769.988 46.1056C772.606 45.6289 775.343 45.7481 777.962 45.8673C777.843 47.4162 777.724 49.0845 777.486 50.6337C777.248 51.8253 776.414 53.6128 777.129 54.8044C777.486 55.4004 778.081 55.4004 778.676 55.1619C780.104 54.5661 780.104 52.0636 780.342 50.7528C780.699 48.6077 780.818 46.582 780.818 44.4369C780.818 43.7223 780.104 43.1265 779.39 43.1265Z" fill="#A7E1D7"/>
<path d="M730.33 47.5354C721.165 59.0944 703.194 56.2344 699.028 41.8155C698.79 41.1005 698.671 40.2663 698.552 39.5514C708.192 37.4064 717.595 30.3757 718.428 21.915C719.142 14.2884 711.406 12.0243 706.288 16.3142C700.218 21.4383 695.934 28.9457 695.577 36.9295C689.388 37.7637 683.318 36.0954 679.985 30.018C674.392 19.77 681.89 5.94669 691.887 1.89509C692.958 1.53759 692.482 -0.130713 691.411 0.226781C677.605 4.15941 670.464 23.4641 679.866 34.9037C683.556 39.313 689.507 40.7428 695.696 40.0278C696.529 48.131 702.837 54.5659 710.335 57.0684C719.023 59.9283 726.997 55.7578 732.115 48.9652C732.948 47.8927 731.163 46.5821 730.33 47.5354ZM703.67 23.4641C705.574 20.8425 708.073 17.8634 711.287 16.7909C714.381 15.7184 715.452 20.0083 715.571 21.915C715.69 24.2983 714.024 26.4432 712.477 28.1115C709.264 31.8055 703.908 35.0231 698.433 36.4529C698.79 31.8055 701.051 27.2774 703.67 23.4641Z" fill="#A7E1D7"/>
<path d="M736.995 43.1265C733.662 43.1265 730.211 43.3648 726.997 44.1989C725.688 44.5564 726.283 46.3439 727.593 46.1056C730.211 45.6289 732.948 45.7481 735.567 45.8673C735.448 47.4162 735.329 49.0845 735.091 50.6337C734.853 51.8253 734.02 53.6128 734.734 54.8044C735.091 55.4004 735.686 55.4004 736.281 55.1619C737.709 54.5661 737.709 52.0636 737.947 50.7528C738.304 48.6077 738.423 46.582 738.423 44.4369C738.423 43.7223 737.709 43.1265 736.995 43.1265Z" fill="#A7E1D7"/>
<path d="M689.102 47.5354C679.938 59.0944 661.966 56.2344 657.8 41.8155C657.562 41.1005 657.443 40.2663 657.324 39.5514C666.965 37.4064 676.367 30.3757 677.2 21.915C677.914 14.2884 670.178 12.0243 665.06 16.3142C658.991 21.4383 654.706 28.9457 654.349 36.9295C648.16 37.7637 642.09 36.0954 638.758 30.018C633.164 19.77 640.662 5.94669 650.659 1.89509C651.731 1.53759 651.254 -0.130713 650.183 0.226781C636.377 4.15941 629.236 23.4641 638.639 34.9037C642.328 39.313 648.279 40.7428 654.468 40.0278C655.301 48.131 661.609 54.5659 669.107 57.0684C677.795 59.9283 685.769 55.7578 690.887 48.9652C691.72 47.8927 689.935 46.5821 689.102 47.5354ZM662.442 23.4641C664.346 20.8425 666.846 17.8634 670.059 16.7909C673.153 15.7184 674.225 20.0083 674.344 21.915C674.463 24.2983 672.796 26.4432 671.249 28.1115C668.036 31.8055 662.68 35.0231 657.205 36.4529C657.562 31.8055 659.824 27.2774 662.442 23.4641Z" fill="#A7E1D7"/>
<path d="M695.767 43.1265C692.434 43.1265 688.983 43.3648 685.769 44.1989C684.46 44.5564 685.055 46.3439 686.364 46.1056C688.983 45.6289 691.72 45.7481 694.339 45.8673C694.22 47.4162 694.101 49.0845 693.862 50.6337C693.624 51.8253 692.791 53.6128 693.505 54.8044C693.862 55.4004 694.458 55.4004 695.053 55.1619C696.481 54.5661 696.481 52.0636 696.719 50.7528C697.076 48.6077 697.195 46.582 697.195 44.4369C697.195 43.7223 696.481 43.1265 695.767 43.1265Z" fill="#A7E1D7"/>
<path d="M646.803 47.3762C637.639 58.9352 619.667 56.0753 615.502 41.6563C615.264 40.9413 615.145 40.1072 615.026 39.3922C624.666 37.2472 634.068 30.2165 634.901 21.7558C635.616 14.1292 627.879 11.8651 622.762 16.155C616.692 21.2791 612.407 28.7865 612.05 36.7704C605.861 37.6045 599.791 35.9362 596.459 29.8588C590.865 19.6108 598.363 5.78751 608.361 1.73591C609.432 1.37841 608.956 -0.289893 607.885 0.0676015C594.079 4.00023 586.937 23.3049 596.34 34.7446C600.029 39.1539 605.98 40.5836 612.169 39.8686C613.002 47.9719 619.31 54.4067 626.808 56.9092C635.496 59.7692 643.47 55.5986 648.588 48.806C649.422 47.7335 647.636 46.4229 646.803 47.3762ZM620.143 23.3049C622.048 20.6833 624.547 17.7042 627.76 16.6317C630.855 15.5592 631.926 19.8492 632.045 21.7558C632.164 24.1391 630.498 26.2841 628.95 27.9524C625.737 31.6463 620.381 34.8639 614.907 36.2937C615.264 31.6463 617.525 27.1182 620.143 23.3049Z" fill="#A7E1D7"/>
<path d="M653.468 42.967C650.136 42.967 646.684 43.2054 643.471 44.0395C642.162 44.397 642.757 46.1845 644.066 45.9462C646.684 45.4695 649.422 45.5887 652.04 45.7078C651.921 47.2568 651.802 48.9251 651.564 50.4742C651.326 51.6659 650.493 53.4534 651.207 54.645C651.564 55.241 652.159 55.241 652.754 55.0025C654.183 54.4067 654.183 51.9042 654.421 50.5934C654.778 48.4482 654.896 46.4226 654.896 44.2775C654.896 43.5629 654.182 42.967 653.468 42.967Z" fill="#A7E1D7"/>
<path d="M604.019 47.5531C594.855 59.1121 576.883 56.2521 572.718 41.8332C572.48 41.1182 572.361 40.284 572.241 39.5691C581.882 37.4241 591.284 30.3934 592.117 21.9327C592.831 14.3061 585.095 12.042 579.978 16.3319C573.908 21.456 569.623 28.9634 569.266 36.9472C563.077 37.7814 557.007 36.1131 553.675 30.0357C548.081 19.7877 555.579 5.96439 565.577 1.91279C566.648 1.55529 566.172 -0.113013 565.1 0.244481C551.294 4.17711 544.153 23.4818 553.556 34.9214C557.245 39.3307 563.196 40.7605 569.385 40.0455C570.218 48.1487 576.526 54.5836 584.024 57.0861C592.712 59.946 600.686 55.7755 605.804 48.9829C606.637 47.9104 604.852 46.5998 604.019 47.5531ZM577.359 23.4818C579.264 20.8602 581.763 17.8811 584.976 16.8086C588.071 15.7361 589.142 20.026 589.261 21.9327C589.38 24.316 587.714 26.4609 586.166 28.1292C582.953 31.8232 577.597 35.0408 572.122 36.4706C572.48 31.8232 574.741 27.2951 577.359 23.4818Z" fill="#A7E1D7"/>
<path d="M610.684 43.1443C607.351 43.1443 603.9 43.3826 600.686 44.2168C599.377 44.5743 599.972 46.3617 601.282 46.1234C603.9 45.6467 606.637 45.7659 609.256 45.8851C609.137 47.434 609.018 49.1023 608.78 50.6515C608.542 51.8431 607.709 53.6306 608.423 54.8222C608.78 55.4183 609.375 55.4183 609.97 55.1797C611.398 54.5839 611.398 52.0815 611.636 50.7706C611.993 48.6255 612.112 46.5999 612.112 44.4547C612.112 43.7401 611.398 43.1443 610.684 43.1443Z" fill="#A7E1D7"/>
<path d="M561.624 47.5531C552.46 59.1121 534.488 56.2521 530.323 41.8332C530.085 41.1182 529.966 40.284 529.847 39.5691C539.487 37.4241 548.889 30.3934 549.722 21.9327C550.437 14.3061 542.7 12.042 537.583 16.3319C531.513 21.456 527.228 28.9634 526.871 36.9472C520.682 37.7814 514.612 36.1131 511.28 30.0357C505.686 19.7877 513.184 5.96439 523.182 1.91279C524.253 1.55529 523.777 -0.113013 522.706 0.244481C508.9 4.17711 501.759 23.4818 511.161 34.9214C514.85 39.3307 520.801 40.7605 526.99 40.0455C527.823 48.1487 534.131 54.5836 541.629 57.0861C550.317 59.946 558.292 55.7755 563.409 48.9829C564.243 47.9104 562.457 46.5998 561.624 47.5531ZM534.964 23.4818C536.869 20.8602 539.368 17.8811 542.581 16.8086C545.676 15.7361 546.747 20.026 546.866 21.9327C546.985 24.316 545.319 26.4609 543.771 28.1292C540.558 31.8232 535.202 35.0408 529.728 36.4706C530.085 31.8232 532.346 27.2951 534.964 23.4818Z" fill="#A7E1D7"/>
<path d="M568.289 43.1443C564.957 43.1443 561.505 43.3826 558.292 44.2168C556.983 44.5743 557.577 46.3617 558.887 46.1234C561.505 45.6467 564.243 45.7659 566.861 45.8851C566.742 47.434 566.623 49.1023 566.385 50.6515C566.147 51.8431 565.314 53.6306 566.028 54.8222C566.385 55.4183 566.98 55.4183 567.575 55.1797C569.003 54.5839 569.003 52.0815 569.241 50.7706C569.598 48.6255 569.717 46.5999 569.717 44.4547C569.717 43.7401 569.003 43.1443 568.289 43.1443Z" fill="#A7E1D7"/>
<path d="M520.395 47.5531C511.231 59.1121 493.259 56.2521 489.094 41.8332C488.856 41.1182 488.737 40.284 488.618 39.5691C498.258 37.4241 507.661 30.3934 508.494 21.9327C509.208 14.3061 501.472 12.042 496.354 16.3319C490.284 21.456 485.999 28.9634 485.642 36.9472C479.453 37.7814 473.384 36.1131 470.051 30.0357C464.457 19.7877 471.955 5.96439 481.953 1.91279C483.024 1.55529 482.548 -0.113013 481.477 0.244481C467.671 4.17711 460.53 23.4818 469.932 34.9214C473.622 39.3307 479.573 40.7605 485.761 40.0455C486.595 48.1487 492.902 54.5836 500.4 57.0861C509.089 59.946 517.063 55.7755 522.18 48.9829C523.014 47.9104 521.228 46.5998 520.395 47.5531ZM493.736 23.4818C495.64 20.8602 498.139 17.8811 501.353 16.8086C504.447 15.7361 505.518 20.026 505.637 21.9327C505.756 24.316 504.09 26.4609 502.543 28.1292C499.329 31.8232 493.974 35.0408 488.499 36.4706C488.856 31.8232 491.117 27.2951 493.736 23.4818Z" fill="#A7E1D7"/>
<path d="M527.06 43.1443C523.728 43.1443 520.276 43.3826 517.063 44.2168C515.754 44.5743 516.348 46.3617 517.658 46.1234C520.276 45.6467 523.014 45.7659 525.632 45.8851C525.513 47.434 525.394 49.1023 525.156 50.6515C524.918 51.8431 524.085 53.6306 524.799 54.8222C525.156 55.4183 525.751 55.4183 526.346 55.1797C527.774 54.5839 527.774 52.0815 528.012 50.7706C528.369 48.6255 528.488 46.5999 528.488 44.4547C528.488 43.7401 527.774 43.1443 527.06 43.1443Z" fill="#A7E1D7"/>
<path d="M477.612 47.3585C468.448 58.9175 450.476 56.0576 446.311 41.6386C446.073 40.9236 445.954 40.0895 445.835 39.3745C455.475 37.2295 464.878 30.1988 465.711 21.7381C466.425 14.1115 458.689 11.8474 453.571 16.1373C447.501 21.2614 443.216 28.7688 442.859 36.7527C436.67 37.5868 430.601 35.9185 427.268 29.8411C421.674 19.5931 429.172 5.76981 439.17 1.71821C440.241 1.36071 439.765 -0.307593 438.694 0.0499013C424.888 3.98253 417.747 23.2872 427.149 34.7269C430.839 39.1362 436.789 40.5659 442.978 39.8509C443.811 47.9542 450.119 54.389 457.617 56.8915C466.306 59.7515 474.28 55.5809 479.397 48.7883C480.231 47.7158 478.445 46.4052 477.612 47.3585ZM450.952 23.2872C452.857 20.6656 455.356 17.6865 458.57 16.614C461.664 15.5415 462.735 19.8315 462.854 21.7381C462.973 24.1214 461.307 26.2664 459.76 27.9347C456.546 31.6286 451.191 34.8462 445.716 36.276C446.073 31.6286 448.334 27.1005 450.952 23.2872Z" fill="#A7E1D7"/>
<path d="M484.277 42.9495C480.944 42.9495 477.493 43.1878 474.279 44.0219C472.97 44.3794 473.565 46.1669 474.874 45.9286C477.493 45.4519 480.23 45.5711 482.849 45.6903C482.73 47.2392 482.611 48.9075 482.372 50.4566C482.134 51.6483 481.301 53.4358 482.015 54.6274C482.372 55.2234 482.968 55.2234 483.563 54.9849C484.991 54.3891 484.991 51.8866 485.229 50.5758C485.586 48.4307 485.705 46.405 485.705 44.2599C485.705 43.5453 484.991 42.9495 484.277 42.9495Z" fill="#A7E1D7"/>
<path d="M434.828 47.5354C425.663 59.0944 407.692 56.2344 403.526 41.8155C403.288 41.1005 403.169 40.2663 403.05 39.5514C412.691 37.4064 422.093 30.3757 422.926 21.915C423.64 14.2884 415.904 12.0243 410.786 16.3142C404.716 21.4383 400.432 28.9457 400.075 36.9295C393.886 37.7637 387.816 36.0954 384.484 30.018C378.89 19.77 386.388 5.94669 396.385 1.89509C397.456 1.53759 396.98 -0.130713 395.909 0.226781C382.103 4.15941 374.962 23.4641 384.364 34.9037C388.054 39.313 394.005 40.7428 400.194 40.0278C401.027 48.131 407.335 54.5659 414.833 57.0684C423.521 59.9283 431.495 55.7578 436.613 48.9652C437.446 47.8927 435.661 46.5821 434.828 47.5354ZM408.168 23.4641C410.072 20.8425 412.572 17.8634 415.785 16.7909C418.879 15.7184 419.951 20.0083 420.069 21.915C420.188 24.2983 418.522 26.4432 416.975 28.1115C413.762 31.8055 408.406 35.0231 402.931 36.4529C403.288 31.8055 405.55 27.2774 408.168 23.4641Z" fill="#A7E1D7"/>
<path d="M441.492 43.1265C438.16 43.1265 434.708 43.3648 431.495 44.1989C430.186 44.5564 430.781 46.3439 432.09 46.1056C434.708 45.6289 437.446 45.7481 440.064 45.8673C439.945 47.4162 439.826 49.0845 439.588 50.6337C439.35 51.8253 438.517 53.6128 439.231 54.8044C439.588 55.4004 440.183 55.4004 440.778 55.1619C442.207 54.5661 442.207 52.0636 442.445 50.7528C442.802 48.6077 442.92 46.582 442.92 44.4369C442.92 43.7223 442.206 43.1265 441.492 43.1265Z" fill="#A7E1D7"/>
<path d="M392.433 47.5354C383.269 59.0944 365.297 56.2344 361.131 41.8155C360.893 41.1005 360.774 40.2663 360.655 39.5514C370.296 37.4064 379.698 30.3757 380.531 21.915C381.245 14.2884 373.509 12.0243 368.391 16.3142C362.322 21.4383 358.037 28.9457 357.68 36.9295C351.491 37.7637 345.421 36.0954 342.089 30.018C336.495 19.77 343.993 5.94669 353.99 1.89509C355.061 1.53759 354.585 -0.130713 353.514 0.226781C339.708 4.15941 332.567 23.4641 341.97 34.9037C345.659 39.313 351.61 40.7428 357.799 40.0278C358.632 48.131 364.94 54.5659 372.438 57.0684C381.126 59.9283 389.1 55.7578 394.218 48.9652C395.051 47.8927 393.266 46.5821 392.433 47.5354ZM365.773 23.4641C367.677 20.8425 370.177 17.8634 373.39 16.7909C376.484 15.7184 377.556 20.0083 377.675 21.915C377.794 24.2983 376.127 26.4432 374.58 28.1115C371.367 31.8055 366.011 35.0231 360.536 36.4529C360.893 31.8055 363.155 27.2774 365.773 23.4641Z" fill="#A7E1D7"/>
<path d="M399.097 43.1265C395.765 43.1265 392.313 43.3648 389.1 44.1989C387.791 44.5564 388.386 46.3439 389.695 46.1056C392.314 45.6289 395.051 45.7481 397.669 45.8673C397.55 47.4162 397.431 49.0845 397.193 50.6337C396.955 51.8253 396.122 53.6128 396.836 54.8044C397.193 55.4004 397.788 55.4004 398.383 55.1619C399.812 54.5661 399.812 52.0636 400.05 50.7528C400.407 48.6077 400.526 46.582 400.526 44.4369C400.526 43.7223 399.811 43.1265 399.097 43.1265Z" fill="#A7E1D7"/>
<path d="M351.205 47.5354C342.04 59.0944 324.069 56.2344 319.903 41.8155C319.665 41.1005 319.546 40.2663 319.427 39.5514C329.067 37.4064 338.47 30.3757 339.303 21.915C340.017 14.2884 332.281 12.0243 327.163 16.3142C321.093 21.4383 316.809 28.9457 316.452 36.9295C310.263 37.7637 304.193 36.0954 300.86 30.018C295.267 19.77 302.765 5.94669 312.762 1.89509C313.833 1.53759 313.357 -0.130713 312.286 0.226781C298.48 4.15941 291.339 23.4641 300.741 34.9037C304.431 39.313 310.382 40.7428 316.571 40.0278C317.404 48.131 323.712 54.5659 331.21 57.0684C339.898 59.9283 347.872 55.7578 352.99 48.9652C353.823 47.8927 352.038 46.5821 351.205 47.5354ZM324.545 23.4641C326.449 20.8425 328.948 17.8634 332.162 16.7909C335.256 15.7184 336.327 20.0083 336.446 21.915C336.565 24.2983 334.899 26.4432 333.352 28.1115C330.139 31.8055 324.783 35.0231 319.308 36.4529C319.665 31.8055 321.926 27.2774 324.545 23.4641Z" fill="#A7E1D7"/>
<path d="M357.869 43.1265C354.537 43.1265 351.085 43.3648 347.872 44.1989C346.563 44.5564 347.158 46.3439 348.467 46.1056C351.086 45.6289 353.823 45.7481 356.441 45.8673C356.322 47.4162 356.203 49.0845 355.965 50.6337C355.727 51.8253 354.894 53.6128 355.608 54.8044C355.965 55.4004 356.56 55.4004 357.156 55.1619C358.584 54.5661 358.584 52.0636 358.822 50.7528C359.179 48.6077 359.298 46.582 359.298 44.4369C359.298 43.7223 358.584 43.1265 357.869 43.1265Z" fill="#A7E1D7"/>
<path d="M308.906 47.3762C299.742 58.9352 281.77 56.0753 277.604 41.6563C277.366 40.9413 277.247 40.1072 277.128 39.3922C286.769 37.2472 296.171 30.2165 297.004 21.7558C297.718 14.1292 289.982 11.8651 284.864 16.155C278.795 21.2791 274.51 28.7865 274.153 36.7704C267.964 37.6045 261.894 35.9362 258.562 29.8588C252.968 19.6108 260.466 5.78751 270.463 1.73591C271.535 1.37841 271.058 -0.289893 269.987 0.0676015C256.181 4.00023 249.04 23.3049 258.443 34.7446C262.132 39.1539 268.083 40.5836 274.272 39.8686C275.105 47.9719 281.413 54.4067 288.911 56.9092C297.599 59.7692 305.573 55.5986 310.691 48.806C311.524 47.7335 309.739 46.4229 308.906 47.3762ZM282.246 23.3049C284.15 20.6833 286.65 17.7042 289.863 16.6317C292.957 15.5592 294.029 19.8492 294.148 21.7558C294.267 24.1391 292.6 26.2841 291.053 27.9524C287.84 31.6463 282.484 34.8639 277.009 36.2937C277.366 31.6463 279.628 27.1182 282.246 23.3049Z" fill="#A7E1D7"/>
<path d="M315.571 42.967C312.239 42.967 308.787 43.2054 305.574 44.0395C304.265 44.397 304.86 46.1845 306.169 45.9462C308.787 45.4695 311.525 45.5887 314.143 45.7078C314.024 47.2568 313.905 48.9251 313.667 50.4742C313.429 51.6659 312.596 53.4534 313.31 54.645C313.667 55.241 314.262 55.241 314.857 55.0025C316.286 54.4067 316.286 51.9042 316.524 50.5934C316.881 48.4482 316.999 46.4226 316.999 44.2775C316.999 43.5629 316.285 42.967 315.571 42.967Z" fill="#A7E1D7"/>
<path d="M266.122 47.5531C256.958 59.1121 238.986 56.2521 234.821 41.8332C234.583 41.1182 234.464 40.284 234.345 39.5691C243.985 37.4241 253.388 30.3934 254.221 21.9327C254.935 14.3061 247.199 12.042 242.081 16.3319C236.011 21.456 231.726 28.9634 231.369 36.9472C225.18 37.7814 219.111 36.1131 215.778 30.0357C210.184 19.7877 217.682 5.96439 227.68 1.91279C228.751 1.55529 228.275 -0.113013 227.204 0.244481C213.398 4.17711 206.257 23.4818 215.659 34.9214C219.349 39.3307 225.299 40.7605 231.488 40.0455C232.321 48.1487 238.629 54.5836 246.127 57.0861C254.816 59.946 262.79 55.7755 267.907 48.9829C268.741 47.9104 266.955 46.5998 266.122 47.5531ZM239.462 23.4818C241.367 20.8602 243.866 17.8811 247.08 16.8086C250.174 15.7361 251.245 20.026 251.364 21.9327C251.483 24.316 249.817 26.4609 248.27 28.1292C245.056 31.8232 239.701 35.0408 234.226 36.4706C234.583 31.8232 236.844 27.2951 239.462 23.4818Z" fill="#A7E1D7"/>
<path d="M272.787 43.1443C269.454 43.1443 266.003 43.3826 262.789 44.2168C261.48 44.5743 262.075 46.3617 263.385 46.1234C266.003 45.6467 268.74 45.7659 271.359 45.8851C271.24 47.434 271.121 49.1023 270.883 50.6515C270.645 51.8431 269.812 53.6306 270.526 54.8222C270.883 55.4183 271.478 55.4183 272.073 55.1797C273.501 54.5839 273.501 52.0815 273.739 50.7706C274.096 48.6255 274.215 46.5999 274.215 44.4547C274.215 43.7401 273.501 43.1443 272.787 43.1443Z" fill="#A7E1D7"/>
<path d="M223.727 47.5531C214.563 59.1121 196.591 56.2521 192.426 41.8332C192.188 41.1182 192.069 40.284 191.95 39.5691C201.59 37.4241 210.992 30.3934 211.826 21.9327C212.54 14.3061 204.804 12.042 199.686 16.3319C193.616 21.456 189.331 28.9634 188.974 36.9472C182.785 37.7814 176.716 36.1131 173.383 30.0357C167.789 19.7877 175.287 5.96439 185.285 1.91279C186.356 1.55529 185.88 -0.113013 184.809 0.244481C171.003 4.17711 163.862 23.4818 173.264 34.9214C176.954 39.3307 182.904 40.7605 189.093 40.0455C189.926 48.1487 196.234 54.5836 203.732 57.0861C212.421 59.946 220.395 55.7755 225.512 48.9829C226.346 47.9104 224.56 46.5998 223.727 47.5531ZM197.067 23.4818C198.972 20.8602 201.471 17.8811 204.685 16.8086C207.779 15.7361 208.85 20.026 208.969 21.9327C209.088 24.316 207.422 26.4609 205.875 28.1292C202.661 31.8232 197.306 35.0408 191.831 36.4706C192.188 31.8232 194.449 27.2951 197.067 23.4818Z" fill="#A7E1D7"/>
<path d="M230.391 43.1443C227.059 43.1443 223.607 43.3826 220.394 44.2168C219.085 44.5743 219.68 46.3617 220.989 46.1234C223.608 45.6467 226.345 45.7659 228.963 45.8851C228.844 47.434 228.725 49.1023 228.487 50.6515C228.249 51.8431 227.416 53.6306 228.13 54.8222C228.487 55.4183 229.082 55.4183 229.677 55.1797C231.106 54.5839 231.106 52.0815 231.344 50.7706C231.701 48.6255 231.82 46.5999 231.82 44.4547C231.82 43.7401 231.105 43.1443 230.391 43.1443Z" fill="#A7E1D7"/>
<path d="M182.499 47.5531C173.335 59.1121 155.363 56.2521 151.198 41.8332C150.96 41.1182 150.841 40.284 150.722 39.5691C160.362 37.4241 169.764 30.3934 170.597 21.9327C171.312 14.3061 163.575 12.042 158.458 16.3319C152.388 21.456 148.103 28.9634 147.746 36.9472C141.557 37.7814 135.487 36.1131 132.155 30.0357C126.561 19.7877 134.059 5.96439 144.057 1.91279C145.128 1.55529 144.652 -0.113013 143.581 0.244481C129.775 4.17711 122.634 23.4818 132.036 34.9214C135.725 39.3307 141.676 40.7605 147.865 40.0455C148.698 48.1487 155.006 54.5836 162.504 57.0861C171.192 59.946 179.167 55.7755 184.284 48.9829C185.118 47.9104 183.332 46.5998 182.499 47.5531ZM155.839 23.4818C157.744 20.8602 160.243 17.8811 163.456 16.8086C166.551 15.7361 167.622 20.026 167.741 21.9327C167.86 24.316 166.194 26.4609 164.646 28.1292C161.433 31.8232 156.077 35.0408 150.603 36.4706C150.96 31.8232 153.221 27.2951 155.839 23.4818Z" fill="#A7E1D7"/>
<path d="M189.164 43.1443C185.832 43.1443 182.38 43.3826 179.167 44.2168C177.858 44.5743 178.452 46.3617 179.762 46.1234C182.38 45.6467 185.118 45.7659 187.736 45.8851C187.617 47.434 187.498 49.1023 187.26 50.6515C187.022 51.8431 186.189 53.6306 186.903 54.8222C187.26 55.4183 187.855 55.4183 188.45 55.1797C189.878 54.5839 189.878 52.0815 190.116 50.7706C190.473 48.6255 190.592 46.5999 190.592 44.4547C190.592 43.7401 189.878 43.1443 189.164 43.1443Z" fill="#A7E1D7"/>
<path d="M139.715 47.3585C130.551 58.9175 112.579 56.0576 108.414 41.6386C108.176 40.9236 108.057 40.0895 107.938 39.3745C117.578 37.2295 126.98 30.1988 127.813 21.7381C128.528 14.1115 120.791 11.8474 115.674 16.1373C109.604 21.2614 105.319 28.7688 104.962 36.7527C98.7732 37.5868 92.7033 35.9185 89.3708 29.8411C83.777 19.5931 91.2751 5.76981 101.273 1.71821C102.344 1.36071 101.868 -0.307593 100.796 0.0499013C86.9905 3.98253 79.8495 23.2872 89.2518 34.7269C92.9414 39.1362 98.8922 40.5659 105.081 39.8509C105.914 47.9542 112.222 54.389 119.72 56.8915C128.408 59.7515 136.382 55.5809 141.5 48.7883C142.334 47.7158 140.548 46.4052 139.715 47.3585ZM113.055 23.2872C114.96 20.6656 117.459 17.6865 120.672 16.614C123.767 15.5415 124.838 19.8315 124.957 21.7381C125.076 24.1214 123.41 26.2664 121.862 27.9347C118.649 31.6286 113.293 34.8462 107.819 36.276C108.176 31.6286 110.437 27.1005 113.055 23.2872Z" fill="#A7E1D7"/>
<path d="M146.38 42.9495C143.047 42.9495 139.596 43.1878 136.382 44.0219C135.073 44.3794 135.668 46.1669 136.977 45.9286C139.596 45.4519 142.333 45.5711 144.952 45.6903C144.833 47.2392 144.714 48.9075 144.476 50.4566C144.237 51.6483 143.404 53.4358 144.118 54.6274C144.476 55.2234 145.071 55.2234 145.666 54.9849C147.094 54.3891 147.094 51.8866 147.332 50.5758C147.689 48.4307 147.808 46.405 147.808 44.2599C147.808 43.5453 147.094 42.9495 146.38 42.9495Z" fill="#A7E1D7"/>
<path d="M97.5169 47.5531C88.3526 59.1121 70.381 56.2521 66.2154 41.8332C65.9773 41.1182 65.8583 40.284 65.7393 39.5691C75.3797 37.4241 84.782 30.3934 85.6152 21.9327C86.3293 14.3061 78.5931 12.042 73.4754 16.3319C67.4055 21.456 63.1209 28.9634 62.7639 36.9472C56.575 37.7814 50.5051 36.1131 47.1726 30.0357C41.5788 19.7877 49.0769 5.96439 59.0743 1.91279C60.1455 1.55529 59.6694 -0.113013 58.5983 0.244481C44.7923 4.17711 37.6512 23.4818 47.0536 34.9214C50.7431 39.3307 56.694 40.7605 62.8829 40.0455C63.716 48.1487 70.0239 54.5836 77.5218 57.0861C86.2101 59.946 94.1842 55.7755 99.302 48.9829C100.135 47.9104 98.3498 46.5998 97.5169 47.5531ZM70.857 23.4818C72.7613 20.8602 75.2607 17.8811 78.4741 16.8086C81.5684 15.7361 82.6397 20.026 82.7586 21.9327C82.8776 24.316 81.2113 26.4609 79.6641 28.1292C76.4508 31.8232 71.0951 35.0408 65.6203 36.4706C65.9773 31.8232 68.2386 27.2951 70.857 23.4818Z" fill="#A7E1D7"/>
<path d="M104.181 43.1443C100.849 43.1443 97.3974 43.3826 94.1839 44.2168C92.8749 44.5743 93.4698 46.3617 94.7792 46.1234C97.3976 45.6467 100.135 45.7659 102.753 45.8851C102.634 47.434 102.515 49.1023 102.277 50.6515C102.039 51.8431 101.206 53.6306 101.92 54.8222C102.277 55.4183 102.872 55.4183 103.467 55.1797C104.896 54.5839 104.896 52.0815 105.134 50.7706C105.491 48.6255 105.61 46.5999 105.61 44.4547C105.61 43.7401 104.895 43.1443 104.181 43.1443Z" fill="#A7E1D7"/>
<path d="M54.7328 47.3585C45.5685 58.9175 27.5969 56.0576 23.4313 41.6386C23.1933 40.9236 23.0742 40.0895 22.9552 39.3745C32.5956 37.2295 41.998 30.1988 42.8311 21.7381C43.5452 14.1115 35.8091 11.8474 30.6913 16.1373C24.6215 21.2614 20.3368 28.7688 19.9798 36.7527C13.7909 37.5868 7.72102 35.9185 4.38854 29.8411C-1.20527 19.5931 6.29282 5.76981 16.2903 1.71821C17.3614 1.36071 16.8854 -0.307593 15.8142 0.0499013C2.0082 3.98253 -5.13284 23.2872 4.26952 34.7269C7.95906 39.1362 13.9099 40.5659 20.0988 39.8509C20.9319 47.9542 27.2398 54.389 34.7377 56.8915C43.426 59.7515 51.4002 55.5809 56.5179 48.7883C57.3512 47.7158 55.5658 46.4052 54.7328 47.3585ZM28.073 23.2872C29.9772 20.6656 32.4766 17.6865 35.6901 16.614C38.7843 15.5415 39.8557 19.8315 39.9745 21.7381C40.0935 24.1214 38.4273 26.2664 36.8801 27.9347C33.6668 31.6286 28.311 34.8462 22.8362 36.276C23.1933 31.6286 25.4546 27.1005 28.073 23.2872Z" fill="#A7E1D7"/>
<path d="M61.3974 42.9495C58.0649 42.9495 54.6134 43.1878 51.4 44.0219C50.091 44.3794 50.6859 46.1669 51.9953 45.9286C54.6136 45.4519 57.351 45.5711 59.9694 45.6903C59.8504 47.2392 59.7314 48.9075 59.4933 50.4566C59.2553 51.6483 58.4222 53.4358 59.1363 54.6274C59.4933 55.2234 60.0884 55.2234 60.6835 54.9849C62.1117 54.3891 62.1117 51.8866 62.3498 50.5758C62.7068 48.4307 62.8256 46.405 62.8256 44.2599C62.8256 43.5453 62.1115 42.9495 61.3974 42.9495Z" fill="#A7E1D7"/>
</svg>
