<svg width="39" height="26" viewBox="0 0 39 26" fill="none" xmlns="http://www.w3.org/2000/svg">
<path d="M5.95332 14.4976C10.7829 8.09624 18.3081 4.16587 26.5072 6.86111C30.7636 8.27975 34.6136 11.0394 37.1771 14.6756L39 18.5388C32.7383 9.83711 14.9834 6.59289 7.63788 15.8451C6.85185 16.7435 5.16692 15.5083 5.95332 14.4976Z" fill="#A7E1D7"/>
<path d="M1.34797 20C4.49283 20 7.75001 19.7754 10.7826 18.9893C12.0178 18.6524 11.4564 16.9679 10.2208 17.1925C7.74982 17.6417 5.16655 17.5294 2.69558 17.4171C2.8079 15.9573 2.92022 14.3851 3.14485 12.9252C3.36948 11.8022 4.1557 10.1176 3.4818 8.99462C3.14485 8.43293 2.58327 8.43293 2.02169 8.65772C0.67389 9.21922 0.673891 11.5776 0.449258 12.8129C0.112309 14.8345 0.000172007 16.7434 0.000172007 18.765C0.000172007 19.4385 0.674069 20 1.34797 20Z" fill="#A7E1D7"/>
</svg>
